<?xml version="1.0" encoding="UTF-8" standalone="no"?>
<!DOCTYPE svg PUBLIC "-//W3C//DTD SVG 1.1//EN" "http://www.w3.org/Graphics/SVG/1.1/DTD/svg11.dtd">
<!-- Created with Vectornator (http://vectornator.io/) -->
<svg height="100%" stroke-miterlimit="10" style="fill-rule:nonzero;clip-rule:evenodd;stroke-linecap:round;stroke-linejoin:round;" version="1.1" viewBox="0 0 365.289 276.671" width="100%" xml:space="preserve" xmlns="http://www.w3.org/2000/svg" xmlns:vectornator="http://vectornator.io" xmlns:xlink="http://www.w3.org/1999/xlink">
<defs/>
<g id="Capa-1" vectornator:layerName="Capa 1">
<g opacity="1" vectornator:layerName="Grupo 1">
<path d="M59.9728 104.661L59.9728 137.029C59.9728 144.022 60.7376 148.365 62.2672 150.058C64.3431 152.462 67.4844 153.664 71.6909 153.664L75.952 153.664L75.952 156.696L28.342 156.696L28.342 153.664L32.5212 153.664C37.2194 153.664 40.5791 152.134 42.6004 149.075C43.693 147.382 44.2393 143.366 44.2393 137.029L44.2393 65.2455C44.2393 58.2529 43.5018 53.9098 42.0268 52.2163C39.8963 49.8126 36.7277 48.6107 32.5212 48.6107L28.342 48.6107L28.342 45.5788L69.0686 45.5788C79.0113 45.5788 86.8507 46.6031 92.5868 48.6517C98.323 50.7003 103.158 54.1556 107.091 59.0177C111.024 63.8798 112.991 69.6432 112.991 76.3081C112.991 85.3766 110 92.7517 104.018 98.4332C98.0362 104.115 89.5822 106.955 78.6562 106.955C75.9793 106.955 73.0839 106.764 69.97 106.382C66.8561 105.999 63.5237 105.426 59.9728 104.661ZM59.9728 99.9901C62.8681 100.536 65.4357 100.946 67.6756 101.219C69.9154 101.492 71.8274 101.629 73.4117 101.629C79.0932 101.629 83.9963 99.4302 88.1208 95.0325C92.2454 90.6348 94.3077 84.9396 94.3077 77.947C94.3077 73.1395 93.3243 68.6736 91.3576 64.549C89.391 60.4244 86.6048 57.3378 82.9993 55.2892C79.3937 53.2406 75.2964 52.2163 70.7075 52.2163C67.9214 52.2163 64.3431 52.7353 59.9728 53.7732L59.9728 99.9901Z" fill="#000000" opacity="1" stroke="none" vectornator:layerName="Text 1"/>
<path d="M57.8274 235.975L57.8274 233.717L60.9402 233.717C64.4396 233.717 66.9217 232.598 68.3865 230.36C69.2817 229.017 69.7293 226.006 69.7293 221.326L69.7293 167.86C69.7293 162.692 69.1596 159.457 68.0203 158.155C66.4334 156.365 64.0734 155.47 60.9402 155.47L57.8274 155.47L57.8274 153.211L91.5188 153.211C103.889 153.211 113.298 154.615 119.748 157.423C126.197 160.23 131.385 164.91 135.312 171.461C139.238 178.012 141.201 185.58 141.201 194.166C141.201 205.681 137.702 215.304 130.703 223.035C122.85 231.662 110.887 235.975 94.8147 235.975L57.8274 235.975ZM81.448 229.993C86.6157 231.133 90.9492 231.702 94.4485 231.702C103.889 231.702 111.721 228.386 117.947 221.754C124.173 215.121 127.285 206.129 127.285 194.776C127.285 183.342 124.173 174.329 117.947 167.738C111.721 161.146 103.726 157.85 93.9602 157.85C90.2981 157.85 86.1274 158.44 81.448 159.62L81.448 229.993Z" fill="#000000" opacity="1" stroke="none" vectornator:layerName="Text 2"/>
<g fill="#464646" opacity="1" stroke="none" vectornator:layerName="Text 3">
<path d="M128.686 128.501C128.686 132.163 127.716 135.789 125.775 139.378C123.834 142.967 121.13 145.811 117.663 147.911C114.196 150.01 110.827 151.06 107.556 151.06C104.211 151.06 101.483 149.992 99.3708 147.856C97.259 145.719 96.2031 142.954 96.2031 139.561C96.2031 135.972 97.2346 132.371 99.2976 128.758C101.361 125.144 104.119 122.288 107.574 120.188C111.029 118.089 114.367 117.039 117.59 117.039C120.812 117.039 123.468 118.101 125.555 120.225C127.642 122.349 128.686 125.108 128.686 128.501ZM122.607 125.974C122.607 123.704 122.051 121.964 120.941 120.756C119.83 119.547 118.395 118.943 116.638 118.943C113.049 118.943 109.747 121.513 106.732 126.652C103.717 131.791 102.209 136.9 102.209 141.978C102.209 144.297 102.795 146.086 103.967 147.343C105.139 148.6 106.616 149.229 108.398 149.229C111.84 149.229 115.069 146.672 118.084 141.557C121.099 136.442 122.607 131.248 122.607 125.974Z"/>
<path d="M135.424 119.09L148.059 117.039L142.785 134.837C147.058 127.537 150.939 122.434 154.431 119.529C156.408 117.869 158.02 117.039 159.265 117.039C160.07 117.039 160.705 117.277 161.169 117.753C161.633 118.229 161.865 118.919 161.865 119.822C161.865 121.433 161.45 122.972 160.62 124.436C160.034 125.535 159.191 126.084 158.093 126.084C157.531 126.084 157.049 125.901 156.646 125.535C156.243 125.169 155.993 124.607 155.895 123.85C155.847 123.387 155.737 123.081 155.566 122.935C155.371 122.74 155.139 122.642 154.87 122.642C154.455 122.642 154.064 122.74 153.698 122.935C153.063 123.277 152.099 124.229 150.805 125.791C148.779 128.184 146.582 131.285 144.213 135.093C143.188 136.704 142.309 138.523 141.577 140.55C140.551 143.333 139.965 145.005 139.819 145.567L138.647 150.181L133.044 150.181L139.819 127.439C140.6 124.803 140.991 122.923 140.991 121.8C140.991 121.36 140.808 120.994 140.441 120.701C139.953 120.31 139.306 120.115 138.5 120.115C137.988 120.115 137.048 120.225 135.681 120.445L135.424 119.09Z"/>
<path d="M180.175 107.957L177.319 117.918L183.068 117.918L182.446 120.225L176.733 120.225L170.434 141.831C169.75 144.151 169.409 145.652 169.409 146.336C169.409 146.751 169.506 147.068 169.702 147.288C169.897 147.508 170.129 147.618 170.397 147.618C171.008 147.618 171.813 147.19 172.814 146.336C173.4 145.848 174.707 144.346 176.733 141.831L177.941 142.747C175.695 146.018 173.571 148.326 171.569 149.668C170.202 150.596 168.823 151.06 167.431 151.06C166.357 151.06 165.478 150.724 164.794 150.053C164.111 149.381 163.769 148.521 163.769 147.471C163.769 146.153 164.16 144.139 164.941 141.429L171.057 120.225L165.527 120.225L165.893 118.797C168.579 118.064 170.812 116.972 172.595 115.519C174.377 114.067 176.367 111.546 178.564 107.957L180.175 107.957Z"/>
<path d="M216.833 117.918L210.461 139.744C209.509 142.991 209.033 145.042 209.033 145.896C209.033 146.336 209.112 146.659 209.271 146.867C209.429 147.074 209.643 147.178 209.912 147.178C210.327 147.178 210.784 146.989 211.285 146.61C211.785 146.232 213.049 144.724 215.075 142.088L216.174 142.93C214.245 145.982 212.268 148.228 210.241 149.668C208.898 150.596 207.604 151.06 206.359 151.06C205.407 151.06 204.663 150.791 204.125 150.254C203.588 149.717 203.32 149.021 203.32 148.167C203.32 147.337 203.478 146.238 203.796 144.871C204.187 143.064 205.297 139.134 207.128 133.079C202.978 139.891 199.505 144.59 196.71 147.178C193.914 149.766 191.32 151.06 188.928 151.06C187.805 151.06 186.853 150.669 186.071 149.888C185.29 149.107 184.899 148.118 184.899 146.922C184.899 145.091 185.437 142.283 186.511 138.499L189.697 127.183C190.478 124.473 190.869 122.788 190.869 122.129C190.869 121.836 190.765 121.586 190.557 121.379C190.35 121.171 190.124 121.067 189.88 121.067C189.367 121.067 188.854 121.25 188.342 121.617C187.829 121.983 186.669 123.338 184.863 125.682L183.728 124.876C185.559 122.044 187.499 119.956 189.55 118.614C191.113 117.564 192.553 117.039 193.872 117.039C194.775 117.039 195.513 117.326 196.087 117.9C196.661 118.473 196.948 119.212 196.948 120.115C196.948 121.433 196.459 123.789 195.483 127.183L192.041 139.012C191.088 142.234 190.612 144.273 190.612 145.127C190.612 145.591 190.765 145.964 191.07 146.244C191.375 146.525 191.784 146.665 192.297 146.665C193.103 146.665 194.152 146.263 195.446 145.457C196.74 144.651 198.468 142.863 200.628 140.092C202.789 137.321 204.571 134.721 205.975 132.292C207.379 129.862 208.874 125.999 210.461 120.701L211.267 117.918L216.833 117.918Z"/>
<path d="M227.966 136.375C227.795 137.596 227.709 138.609 227.709 139.414C227.709 141.587 228.478 143.437 230.017 144.963C231.555 146.488 233.422 147.251 235.62 147.251C237.377 147.251 239.068 146.891 240.692 146.171C242.315 145.451 244.726 143.858 247.924 141.392L248.693 142.454C242.907 148.191 237.39 151.06 232.141 151.06C228.576 151.06 225.891 149.937 224.084 147.691C222.277 145.445 221.374 142.967 221.374 140.257C221.374 136.619 222.497 132.896 224.743 129.087C226.989 125.279 229.809 122.318 233.203 120.207C236.596 118.095 240.087 117.039 243.676 117.039C246.264 117.039 248.181 117.564 249.426 118.614C250.671 119.663 251.293 120.909 251.293 122.349C251.293 124.375 250.488 126.316 248.876 128.172C246.752 130.589 243.627 132.542 239.501 134.031C236.767 135.032 232.922 135.813 227.966 136.375ZM228.222 134.58C231.835 134.165 234.777 133.457 237.048 132.456C240.051 131.114 242.303 129.508 243.804 127.641C245.306 125.773 246.057 123.997 246.057 122.312C246.057 121.287 245.733 120.457 245.086 119.822C244.439 119.187 243.518 118.87 242.321 118.87C239.831 118.87 237.188 120.194 234.393 122.843C231.597 125.492 229.541 129.405 228.222 134.58Z"/>
<path d="M271.801 107.957L268.945 117.918L274.694 117.918L274.072 120.225L268.359 120.225L262.06 141.831C261.376 144.151 261.035 145.652 261.035 146.336C261.035 146.751 261.132 147.068 261.328 147.288C261.523 147.508 261.755 147.618 262.023 147.618C262.634 147.618 263.439 147.19 264.44 146.336C265.026 145.848 266.333 144.346 268.359 141.831L269.567 142.747C267.321 146.018 265.197 148.326 263.195 149.668C261.828 150.596 260.449 151.06 259.057 151.06C257.983 151.06 257.104 150.724 256.42 150.053C255.737 149.381 255.395 148.521 255.395 147.471C255.395 146.153 255.786 144.139 256.567 141.429L262.683 120.225L257.153 120.225L257.519 118.797C260.205 118.064 262.438 116.972 264.221 115.519C266.003 114.067 267.993 111.546 270.19 107.957L271.801 107.957Z"/>
<path d="M286.157 117.039C287.353 118.308 288.256 119.578 288.867 120.848C289.306 121.726 290.026 124.034 291.027 127.769L294.25 122.935C295.104 121.763 296.142 120.646 297.363 119.584C298.583 118.522 299.658 117.796 300.585 117.405C301.171 117.161 301.818 117.039 302.526 117.039C303.576 117.039 304.412 117.32 305.035 117.881C305.657 118.443 305.969 119.126 305.969 119.932C305.969 120.86 305.786 121.495 305.419 121.836C304.736 122.447 303.955 122.752 303.076 122.752C302.563 122.752 302.014 122.642 301.428 122.422C300.28 122.032 299.511 121.836 299.121 121.836C298.535 121.836 297.839 122.178 297.033 122.862C295.52 124.131 293.713 126.585 291.613 130.223L294.616 142.82C295.08 144.749 295.471 145.902 295.788 146.281C296.105 146.659 296.423 146.849 296.74 146.849C297.253 146.849 297.851 146.568 298.535 146.006C299.877 144.883 301.025 143.418 301.977 141.612L303.259 142.271C301.721 145.152 299.768 147.544 297.399 149.449C296.057 150.523 294.921 151.06 293.994 151.06C292.626 151.06 291.54 150.291 290.734 148.753C290.222 147.801 289.16 143.699 287.548 136.448C283.74 143.064 280.688 147.325 278.393 149.229C276.904 150.45 275.463 151.06 274.072 151.06C273.095 151.06 272.204 150.706 271.398 149.998C270.812 149.461 270.52 148.741 270.52 147.837C270.52 147.032 270.788 146.36 271.325 145.823C271.862 145.286 272.521 145.017 273.303 145.017C274.084 145.017 274.914 145.408 275.793 146.189C276.428 146.751 276.916 147.032 277.258 147.032C277.551 147.032 277.929 146.836 278.393 146.446C279.541 145.518 281.103 143.516 283.081 140.44C285.058 137.364 286.352 135.142 286.962 133.775C285.449 127.842 284.631 124.705 284.509 124.363C283.947 122.776 283.215 121.653 282.312 120.994C281.408 120.335 280.078 120.005 278.32 120.005C277.758 120.005 277.111 120.03 276.379 120.079L276.379 118.76L286.157 117.039Z"/>
<path d="M315.38 136.375C315.209 137.596 315.124 138.609 315.124 139.414C315.124 141.587 315.893 143.437 317.431 144.963C318.969 146.488 320.837 147.251 323.034 147.251C324.792 147.251 326.483 146.891 328.106 146.171C329.73 145.451 332.141 143.858 335.339 141.392L336.108 142.454C330.322 148.191 324.804 151.06 319.555 151.06C315.991 151.06 313.305 149.937 311.499 147.691C309.692 145.445 308.789 142.967 308.789 140.257C308.789 136.619 309.912 132.896 312.158 129.087C314.404 125.279 317.224 122.318 320.617 120.207C324.011 118.095 327.502 117.039 331.091 117.039C333.679 117.039 335.595 117.564 336.84 118.614C338.085 119.663 338.708 120.909 338.708 122.349C338.708 124.375 337.902 126.316 336.291 128.172C334.167 130.589 331.042 132.542 326.916 134.031C324.182 135.032 320.336 135.813 315.38 136.375ZM315.637 134.58C319.25 134.165 322.192 133.457 324.462 132.456C327.465 131.114 329.718 129.508 331.219 127.641C332.72 125.773 333.471 123.997 333.471 122.312C333.471 121.287 333.148 120.457 332.501 119.822C331.854 119.187 330.932 118.87 329.736 118.87C327.246 118.87 324.603 120.194 321.807 122.843C319.012 125.492 316.955 129.405 315.637 134.58Z"/>
</g>
<g fill="#464646" opacity="1" stroke="none" vectornator:layerName="Text 4">
<path d="M180.339 183.9L167.741 227.113C167.058 229.456 166.716 230.994 166.716 231.727C166.716 231.971 166.819 232.203 167.027 232.423C167.235 232.642 167.448 232.752 167.668 232.752C167.985 232.752 168.364 232.594 168.803 232.276C169.633 231.69 171.025 230.225 172.978 227.882L174.223 228.651C172.465 231.092 170.689 233.07 168.895 234.583C167.1 236.097 165.422 236.854 163.859 236.854C163.029 236.854 162.346 236.561 161.808 235.975C161.271 235.389 161.003 234.559 161.003 233.485C161.003 232.093 161.369 230.225 162.101 227.882L163.53 223.341C159.99 228.809 156.767 232.594 153.862 234.693C151.86 236.134 149.943 236.854 148.112 236.854C146.257 236.854 144.639 236.03 143.26 234.382C141.881 232.734 141.191 230.494 141.191 227.662C141.191 224.024 142.35 220.142 144.67 216.016C146.989 211.89 150.053 208.533 153.862 205.946C156.865 203.87 159.623 202.833 162.138 202.833C163.456 202.833 164.592 203.101 165.544 203.638C166.496 204.176 167.436 205.067 168.364 206.312L171.953 193.568C172.221 192.664 172.441 191.944 172.612 191.407C172.905 190.43 173.051 189.625 173.051 188.99C173.051 188.477 172.868 188.05 172.502 187.708C171.989 187.293 171.33 187.086 170.524 187.086C169.963 187.086 169.035 187.171 167.741 187.342L167.741 185.987L180.339 183.9ZM166.752 209.901C166.752 208.338 166.301 207.081 165.397 206.129C164.494 205.177 163.347 204.7 161.955 204.7C158.879 204.7 155.674 207.24 152.342 212.318C149.009 217.396 147.343 222.254 147.343 226.893C147.343 228.724 147.746 230.122 148.552 231.086C149.357 232.05 150.322 232.533 151.445 232.533C153.984 232.533 157.17 229.786 161.003 224.293C164.836 218.8 166.752 214.002 166.752 209.901Z"/>
<path d="M186.198 222.169C186.027 223.389 185.942 224.403 185.942 225.208C185.942 227.381 186.711 229.231 188.249 230.756C189.787 232.282 191.655 233.045 193.852 233.045C195.61 233.045 197.3 232.685 198.924 231.965C200.548 231.245 202.958 229.652 206.157 227.186L206.926 228.248C201.14 233.985 195.622 236.854 190.373 236.854C186.808 236.854 184.123 235.731 182.316 233.485C180.51 231.239 179.606 228.761 179.606 226.051C179.606 222.413 180.729 218.69 182.975 214.881C185.222 211.073 188.041 208.112 191.435 206.001C194.829 203.889 198.32 202.833 201.909 202.833C204.496 202.833 206.413 203.358 207.658 204.408C208.903 205.457 209.526 206.702 209.526 208.143C209.526 210.169 208.72 212.11 207.109 213.966C204.985 216.383 201.86 218.336 197.734 219.825C194.999 220.826 191.154 221.607 186.198 222.169ZM186.454 220.374C190.068 219.959 193.01 219.251 195.28 218.25C198.283 216.908 200.535 215.302 202.037 213.435C203.538 211.567 204.289 209.791 204.289 208.106C204.289 207.081 203.965 206.251 203.319 205.616C202.672 204.981 201.75 204.664 200.554 204.664C198.063 204.664 195.421 205.988 192.625 208.637C189.83 211.286 187.773 215.199 186.454 220.374Z"/>
<path d="M232.853 183.9L220.329 227.479C219.719 229.652 219.413 230.982 219.413 231.471C219.413 231.837 219.529 232.142 219.761 232.386C219.993 232.63 220.28 232.752 220.622 232.752C221.086 232.752 221.586 232.545 222.123 232.13C223.393 231.129 224.724 229.578 226.115 227.479L227.214 228.614C224.894 231.886 222.758 234.168 220.805 235.462C219.365 236.39 217.997 236.854 216.704 236.854C215.776 236.854 215.001 236.536 214.378 235.902C213.756 235.267 213.444 234.534 213.444 233.704C213.444 232.825 213.835 231.019 214.616 228.284L224.54 193.934C225.346 191.126 225.749 189.515 225.749 189.1C225.749 188.514 225.517 188.032 225.053 187.653C224.589 187.275 223.869 187.086 222.892 187.086C222.331 187.086 221.476 187.171 220.329 187.342L220.329 185.987L232.853 183.9Z"/>
<path d="M266.691 203.712L260.319 225.538C259.367 228.785 258.891 230.836 258.891 231.69C258.891 232.13 258.97 232.453 259.129 232.661C259.288 232.868 259.501 232.972 259.77 232.972C260.185 232.972 260.643 232.783 261.143 232.404C261.644 232.026 262.907 230.518 264.933 227.882L266.032 228.724C264.103 231.776 262.126 234.022 260.1 235.462C258.757 236.39 257.463 236.854 256.218 236.854C255.266 236.854 254.521 236.585 253.984 236.048C253.447 235.511 253.178 234.815 253.178 233.961C253.178 233.131 253.337 232.032 253.654 230.665C254.045 228.858 255.156 224.928 256.987 218.873C252.836 225.684 249.363 230.384 246.568 232.972C243.773 235.56 241.179 236.854 238.786 236.854C237.663 236.854 236.711 236.463 235.93 235.682C235.148 234.901 234.758 233.912 234.758 232.716C234.758 230.885 235.295 228.077 236.369 224.293L239.555 212.977C240.336 210.267 240.727 208.582 240.727 207.923C240.727 207.63 240.623 207.38 240.416 207.172C240.208 206.965 239.982 206.861 239.738 206.861C239.225 206.861 238.713 207.044 238.2 207.41C237.687 207.777 236.528 209.132 234.721 211.475L233.586 210.67C235.417 207.838 237.358 205.75 239.409 204.408C240.971 203.358 242.412 202.833 243.73 202.833C244.633 202.833 245.372 203.12 245.945 203.693C246.519 204.267 246.806 205.006 246.806 205.909C246.806 207.227 246.318 209.583 245.341 212.977L241.899 224.805C240.947 228.028 240.471 230.067 240.471 230.921C240.471 231.385 240.623 231.757 240.928 232.038C241.234 232.319 241.642 232.459 242.155 232.459C242.961 232.459 244.011 232.056 245.305 231.251C246.599 230.445 248.326 228.657 250.486 225.886C252.647 223.115 254.429 220.515 255.833 218.085C257.237 215.656 258.732 211.793 260.319 206.495L261.125 203.712L266.691 203.712Z"/>
<path d="M281.889 202.833C283.085 204.102 283.989 205.372 284.599 206.641C285.038 207.52 285.759 209.827 286.76 213.563L289.982 208.729C290.837 207.557 291.874 206.44 293.095 205.378C294.316 204.316 295.39 203.59 296.318 203.199C296.904 202.955 297.551 202.833 298.259 202.833C299.308 202.833 300.145 203.114 300.767 203.675C301.39 204.237 301.701 204.92 301.701 205.726C301.701 206.654 301.518 207.288 301.152 207.63C300.468 208.241 299.687 208.546 298.808 208.546C298.295 208.546 297.746 208.436 297.16 208.216C296.013 207.825 295.244 207.63 294.853 207.63C294.267 207.63 293.571 207.972 292.766 208.656C291.252 209.925 289.445 212.379 287.346 216.016L290.349 228.614C290.812 230.543 291.203 231.696 291.52 232.075C291.838 232.453 292.155 232.642 292.473 232.642C292.985 232.642 293.583 232.362 294.267 231.8C295.61 230.677 296.757 229.212 297.709 227.406L298.991 228.065C297.453 230.946 295.5 233.338 293.132 235.242C291.789 236.317 290.654 236.854 289.726 236.854C288.359 236.854 287.272 236.085 286.467 234.547C285.954 233.595 284.892 229.493 283.281 222.242C279.472 228.858 276.42 233.118 274.125 235.023C272.636 236.243 271.196 236.854 269.804 236.854C268.828 236.854 267.936 236.5 267.131 235.792C266.545 235.255 266.252 234.534 266.252 233.631C266.252 232.825 266.52 232.154 267.058 231.617C267.595 231.08 268.254 230.811 269.035 230.811C269.816 230.811 270.646 231.202 271.525 231.983C272.16 232.545 272.648 232.825 272.99 232.825C273.283 232.825 273.662 232.63 274.125 232.24C275.273 231.312 276.835 229.31 278.813 226.234C280.79 223.158 282.084 220.936 282.695 219.569C281.181 213.636 280.363 210.499 280.241 210.157C279.68 208.57 278.947 207.447 278.044 206.788C277.141 206.129 275.81 205.799 274.052 205.799C273.491 205.799 272.844 205.824 272.111 205.872L272.111 204.554L281.889 202.833Z"/>
<path d="M311.113 222.169C310.942 223.389 310.856 224.403 310.856 225.208C310.856 227.381 311.625 229.231 313.163 230.756C314.702 232.282 316.569 233.045 318.766 233.045C320.524 233.045 322.215 232.685 323.839 231.965C325.462 231.245 327.873 229.652 331.071 227.186L331.84 228.248C326.054 233.985 320.537 236.854 315.287 236.854C311.723 236.854 309.037 235.731 307.231 233.485C305.424 231.239 304.521 228.761 304.521 226.051C304.521 222.413 305.644 218.69 307.89 214.881C310.136 211.073 312.956 208.112 316.35 206.001C319.743 203.889 323.234 202.833 326.823 202.833C329.411 202.833 331.328 203.358 332.573 204.408C333.818 205.457 334.44 206.702 334.44 208.143C334.44 210.169 333.635 212.11 332.023 213.966C329.899 216.383 326.774 218.336 322.648 219.825C319.914 220.826 316.069 221.607 311.113 222.169ZM311.369 220.374C314.982 219.959 317.924 219.251 320.195 218.25C323.198 216.908 325.45 215.302 326.951 213.435C328.453 211.567 329.204 209.791 329.204 208.106C329.204 207.081 328.88 206.251 328.233 205.616C327.586 204.981 326.664 204.664 325.468 204.664C322.978 204.664 320.335 205.988 317.54 208.637C314.744 211.286 312.687 215.199 311.369 220.374Z"/>
</g>
</g>
</g>
</svg>
