<?xml version="1.0" encoding="UTF-8" standalone="no"?>
<!DOCTYPE svg PUBLIC "-//W3C//DTD SVG 1.1//EN" "http://www.w3.org/Graphics/SVG/1.1/DTD/svg11.dtd">
<!-- Created with Vectornator (http://vectornator.io/) -->
<svg height="100%" stroke-miterlimit="10" style="fill-rule:nonzero;clip-rule:evenodd;stroke-linecap:round;stroke-linejoin:round;" version="1.1" viewBox="0 0 135.756 208.977" width="100%" xml:space="preserve" xmlns="http://www.w3.org/2000/svg" xmlns:vectornator="http://vectornator.io" xmlns:xlink="http://www.w3.org/1999/xlink">
<defs/>
<g id="Capa-1" vectornator:layerName="Capa 1">
<g opacity="1" vectornator:layerName="Grupo 1">
<path d="M39.6078 96.731L39.6078 129.099C39.6078 136.092 40.3726 140.435 41.9022 142.128C43.9782 144.532 47.1194 145.734 51.3259 145.734L55.587 145.734L55.587 148.766L7.97706 148.766L7.97706 145.734L12.1562 145.734C16.8544 145.734 20.2142 144.204 22.2355 141.145C23.3281 139.452 23.8744 135.436 23.8744 129.099L23.8744 57.3155C23.8744 50.3228 23.1369 45.9798 21.6619 44.2862C19.5313 41.8825 16.3628 40.6807 12.1562 40.6807L7.97706 40.6807L7.97706 37.6487L48.7037 37.6487C58.6463 37.6487 66.4857 38.673 72.2218 40.7216C77.958 42.7703 82.7927 46.2256 86.7261 51.0877C90.6594 55.9497 92.6261 61.7132 92.6261 68.378C92.6261 77.4466 89.6351 84.8216 83.6532 90.5032C77.6712 96.1847 69.2172 99.0254 58.2912 99.0254C55.6143 99.0254 52.719 98.8342 49.6051 98.4518C46.4911 98.0694 43.1587 97.4958 39.6078 96.731ZM39.6078 92.0601C42.5032 92.6064 45.0708 93.0161 47.3106 93.2893C49.5504 93.5624 51.4625 93.699 53.0467 93.699C58.7283 93.699 63.6313 91.5001 67.7558 87.1024C71.8804 82.7047 73.9427 77.0096 73.9427 70.0169C73.9427 65.2095 72.9593 60.7435 70.9927 56.6189C69.026 52.4944 66.2399 49.4078 62.6343 47.3592C59.0287 45.3106 54.9315 44.2862 50.3426 44.2862C47.5564 44.2862 43.9782 44.8052 39.6078 45.8432L39.6078 92.0601Z" fill="#000000" opacity="1" stroke="none" vectornator:layerName="Text 1"/>
<path d="M42.4303 176.211L42.4303 173.953L45.5431 173.953C49.0424 173.953 51.5245 172.834 52.9894 170.596C53.8845 169.253 54.3321 166.242 54.3321 161.563L54.3321 108.096C54.3321 102.928 53.7625 99.6936 52.6231 98.3915C51.0362 96.6011 48.6762 95.706 45.5431 95.706L42.4303 95.706L42.4303 93.4477L76.1217 93.4477C88.4915 93.4477 97.9011 94.8515 104.35 97.6591C110.8 100.467 115.988 105.146 119.914 111.697C123.841 118.248 125.804 125.817 125.804 134.402C125.804 145.918 122.305 155.541 115.306 163.272C107.453 171.898 95.4902 176.211 79.4176 176.211L42.4303 176.211ZM66.0509 170.23C71.2185 171.369 75.552 171.939 79.0514 171.939C88.4915 171.939 96.3243 168.623 102.55 161.99C108.775 155.358 111.888 146.365 111.888 135.013C111.888 123.579 108.775 114.566 102.55 107.974C96.3243 101.382 88.3287 98.0863 78.5631 98.0863C74.901 98.0863 70.7302 98.6763 66.0509 99.8564L66.0509 170.23Z" fill="#000000" opacity="1" stroke="none" vectornator:layerName="Text 2"/>
</g>
</g>
</svg>
